<svg width="129" height="178" viewBox="0 0 129 178" fill="none" xmlns="http://www.w3.org/2000/svg">
<path d="M59.3942 146.127C59.3942 146.127 60.4729 158.839 60.2931 164.003C63.9121 169.793 98.5607 167.918 101.078 164.415C100.586 159.281 100.156 155.898 100.945 152.93C101.979 135.998 60.8324 131.979 59.3942 146.127Z" fill="#FFE0BD" stroke="#FFCCAA" stroke-opacity="0.979118" stroke-width="18.8976" stroke-linecap="round" stroke-linejoin="round"/>
<path d="M63.8375 147.415C51.8741 143.236 39.5383 133.558 34.4337 125.003C29.3291 116.447 17.7985 104.182 12.1348 95.6243C10.1467 92.5517 2.98751 86.0928 3.00002 82.0126C3.00971 78.8514 7.94438 75.6337 16.5759 79.7249C24.5227 82.7688 29.5478 87.3983 33.7274 94.4598C35.5246 97.5362 39.4523 104.031 44.5908 103.655C49.7293 103.279 51.6954 96.4992 52.3764 92.9122C53.0574 89.3252 52.5824 83.7042 52.2942 76.862C52.006 70.0199 48.9036 65.2502 47.4634 52.2515C46.7094 45.4459 46.6162 38.8353 45.5565 31.7986C44.7532 25.082 44.3344 11.7657 51.379 11.982C58.998 12.216 58.9482 24.3331 59.386 29.5508C60.1054 38.1244 61.8126 44.8762 63.5789 52.0423C64.6004 56.1866 64.6529 63.9439 66.8329 71.9531C66.9821 72.5013 69.2307 72.1433 69.1984 71.5293C68.8053 64.0482 67.4791 56.3702 66.6145 47.3125C66.6405 39.6797 66.3818 32.9427 65.9044 25.692C66.1277 18.8105 64.6666 7.75447 69.6413 4.08257C71.9936 2.44535 75.8079 2.68346 77.5747 4.67268C80.8168 10.2415 80.4621 15.9553 80.3891 22.3026C80.2874 31.1482 82.3463 40.2352 82.8363 47.5511C83.2748 55.4162 82.7556 63.6409 82.9793 70.7274C83.0266 72.2237 85.1956 72.624 85.4781 71.0082C86.4414 65.4968 86.7345 59.2118 87.5663 54.2978C88.8824 46.5229 89.1743 40.2416 89.7965 33.196C90.2738 27.7912 89.4148 21.9862 90.9491 16.9595C93.0015 10.2355 102.142 11.0287 103.299 17.1463C104.177 21.7863 103.804 26.0244 103.799 29.9591C103.795 32.6799 103.048 38.4641 102.92 44.3468C102.818 49.0081 102.115 53.9147 101.452 58.5252C100.59 64.5262 100.301 72.2917 100.831 76.0413C101.043 77.545 102.567 79.1231 102.969 78.2923C104.381 75.3777 104.845 71.4604 106.376 66.6874C108.4 60.3754 109.556 55.0742 111.662 49.4567C113.313 43.3351 114.102 36.2652 117.818 34.0358C119.757 32.8728 122.495 32.7898 124.533 35.0053C127.623 38.3647 125.056 49.0152 123.866 55.872C123.015 60.7801 121.58 66.426 120.37 71.6881C118.412 80.2055 117.322 86.224 116.62 93.4114C114.28 113.961 112.104 141.907 100.439 153.313C99.7768 153.912 97.8363 155.354 95.216 154.516" fill="#FFE0BD"/>
<path d="M63.8375 147.415C51.8741 143.236 39.5383 133.558 34.4337 125.003C29.3291 116.447 17.7985 104.182 12.1348 95.6243C10.1467 92.5517 2.98751 86.0928 3.00002 82.0126C3.00971 78.8514 7.94438 75.6337 16.5759 79.7249C24.5227 82.7688 29.5478 87.3983 33.7274 94.4598C35.5246 97.5362 39.4523 104.031 44.5908 103.655C49.7293 103.279 51.6954 96.4992 52.3764 92.9122C53.0574 89.3252 52.5824 83.7042 52.2942 76.862C52.006 70.0199 48.9036 65.2502 47.4634 52.2515C46.7094 45.4459 46.6162 38.8353 45.5565 31.7986C44.7532 25.082 44.3344 11.7657 51.379 11.982C58.998 12.216 58.9482 24.3331 59.386 29.5508C60.1054 38.1244 61.8126 44.8762 63.5789 52.0423C64.6004 56.1866 64.6529 63.9439 66.8329 71.9531C66.9821 72.5013 69.2307 72.1433 69.1984 71.5293C68.8053 64.0482 67.4791 56.3702 66.6145 47.3125C66.6405 39.6797 66.3818 32.9427 65.9044 25.692C66.1277 18.8105 64.6666 7.75447 69.6413 4.08257C71.9936 2.44535 75.8079 2.68346 77.5747 4.67268C80.8168 10.2415 80.4621 15.9553 80.3891 22.3026C80.2874 31.1482 82.3463 40.2352 82.8363 47.5511C83.2748 55.4162 82.7556 63.6409 82.9793 70.7274C83.0266 72.2237 85.1956 72.624 85.4781 71.0082C86.4414 65.4968 86.7345 59.2118 87.5663 54.2978C88.8824 46.5229 89.1743 40.2416 89.7965 33.196C90.2738 27.7912 89.4148 21.9862 90.9491 16.9595C93.0015 10.2355 102.142 11.0287 103.299 17.1463C104.177 21.7863 103.804 26.0244 103.799 29.9591C103.795 32.6799 103.048 38.4641 102.92 44.3468C102.818 49.0081 102.115 53.9147 101.452 58.5252C100.59 64.5262 100.301 72.2917 100.831 76.0413C101.043 77.545 102.567 79.1231 102.969 78.2923C104.381 75.3777 104.845 71.4604 106.376 66.6874C108.4 60.3754 109.556 55.0742 111.662 49.4567C113.313 43.3351 114.102 36.2652 117.818 34.0358C119.757 32.8728 122.495 32.7898 124.533 35.0053C127.623 38.3647 125.056 49.0152 123.866 55.872C123.015 60.7801 121.58 66.426 120.37 71.6881C118.412 80.2055 117.322 86.224 116.62 93.4114C114.28 113.961 112.104 141.907 100.439 153.313C99.7768 153.912 97.8363 155.354 95.216 154.516" stroke="#FFCCAA" stroke-opacity="0.5" stroke-width="5" stroke-linecap="round" stroke-linejoin="round"/>
<path d="M61.5265 100.534C70.244 104.045 80.1104 117.315 81.7875 128.346" stroke="#FFCCAA" stroke-opacity="0.979118" stroke-width="18.8976" stroke-linecap="round" stroke-linejoin="round"/>
<path d="M49.776 35V34.208C50.336 34.176 50.76 34.048 51.048 33.824C51.352 33.6 51.56 33.288 51.672 32.888C51.8 32.488 51.864 32.016 51.864 31.472L51.792 20.144L48.912 21.992L48.432 21.296L53.112 17.816H53.928L53.952 32.384C53.952 32.688 53.944 32.984 53.928 33.272C53.928 33.56 53.912 33.816 53.88 34.04C54.216 34.024 54.552 34.008 54.888 33.992C55.224 33.976 55.56 33.96 55.896 33.944V35H49.776Z" fill="black"/>
<path d="M68.104 25C68.104 24.152 68.232 23.4 68.488 22.744C68.76 22.088 69.12 21.488 69.568 20.944C70.016 20.384 70.52 19.848 71.08 19.336C71.656 18.808 72.24 18.256 72.832 17.68C73.872 16.688 74.624 15.768 75.088 14.92C75.552 14.072 75.784 13.256 75.784 12.472C75.784 11.864 75.696 11.28 75.52 10.72C75.36 10.144 75.064 9.672 74.632 9.304C74.2 8.936 73.6 8.752 72.832 8.752C72.176 8.752 71.592 8.92 71.08 9.256C70.568 9.576 70.224 9.976 70.048 10.456C70.208 10.616 70.32 10.792 70.384 10.984C70.448 11.16 70.48 11.336 70.48 11.512C70.48 11.656 70.44 11.816 70.36 11.992C70.296 12.168 70.176 12.32 70 12.448C69.824 12.576 69.592 12.64 69.304 12.64C68.952 12.624 68.68 12.488 68.488 12.232C68.296 11.976 68.2 11.672 68.2 11.32C68.2 10.984 68.304 10.616 68.512 10.216C68.72 9.8 69.032 9.416 69.448 9.064C69.88 8.696 70.408 8.4 71.032 8.176C71.656 7.936 72.384 7.816 73.216 7.816C73.856 7.816 74.472 7.896 75.064 8.056C75.672 8.2 76.216 8.44 76.696 8.776C77.176 9.112 77.552 9.56 77.824 10.12C78.112 10.664 78.256 11.344 78.256 12.16C78.256 12.56 78.168 12.992 77.992 13.456C77.832 13.92 77.56 14.424 77.176 14.968C76.808 15.496 76.328 16.064 75.736 16.672C75.144 17.264 74.416 17.912 73.552 18.616C72.464 19.512 71.568 20.36 70.864 21.16C70.176 21.944 69.776 22.616 69.664 23.176L73.912 23.296C74.696 23.312 75.384 23.312 75.976 23.296C76.584 23.28 77.056 23.16 77.392 22.936C77.744 22.696 77.92 22.264 77.92 21.64H78.64L78.496 25H68.104Z" fill="black"/>
<path d="M96.12 32.384C94.968 32.384 94.016 32.216 93.264 31.88C92.512 31.528 91.952 31.096 91.584 30.584C91.232 30.072 91.056 29.584 91.056 29.12C91.056 28.752 91.152 28.448 91.344 28.208C91.536 27.952 91.808 27.816 92.16 27.8C92.448 27.784 92.672 27.84 92.832 27.968C93.008 28.08 93.128 28.224 93.192 28.4C93.256 28.576 93.288 28.736 93.288 28.88C93.288 29.04 93.264 29.2 93.216 29.36C93.168 29.52 93.104 29.68 93.024 29.84C93.184 30.384 93.544 30.776 94.104 31.016C94.68 31.256 95.296 31.376 95.952 31.376C97.088 31.376 97.992 31.064 98.664 30.44C99.352 29.816 99.696 28.912 99.696 27.728C99.696 27.024 99.584 26.36 99.36 25.736C99.136 25.096 98.72 24.576 98.112 24.176C97.504 23.776 96.616 23.592 95.448 23.624C95.32 23.624 95.184 23.632 95.04 23.648C94.896 23.648 94.736 23.656 94.56 23.672V22.592C94.736 22.592 94.904 22.592 95.064 22.592C95.224 22.592 95.384 22.592 95.544 22.592C96.392 22.592 97.056 22.4 97.536 22.016C98.016 21.632 98.36 21.176 98.568 20.648C98.776 20.12 98.88 19.632 98.88 19.184C98.88 18.528 98.792 17.944 98.616 17.432C98.456 16.904 98.168 16.496 97.752 16.208C97.336 15.904 96.76 15.752 96.024 15.752C95.304 15.752 94.688 15.944 94.176 16.328C93.664 16.696 93.344 17.08 93.216 17.48C93.36 17.64 93.456 17.8 93.504 17.96C93.568 18.12 93.6 18.288 93.6 18.464C93.6 18.592 93.56 18.744 93.48 18.92C93.416 19.08 93.304 19.216 93.144 19.328C92.984 19.44 92.768 19.496 92.496 19.496C92.16 19.496 91.904 19.376 91.728 19.136C91.552 18.896 91.464 18.608 91.464 18.272C91.464 17.824 91.64 17.336 91.992 16.808C92.344 16.264 92.88 15.8 93.6 15.416C94.336 15.016 95.256 14.816 96.36 14.816C97.224 14.816 98.024 14.952 98.76 15.224C99.496 15.496 100.088 15.944 100.536 16.568C100.984 17.176 101.208 17.984 101.208 18.992C101.208 19.488 101.08 19.992 100.824 20.504C100.584 21 100.176 21.464 99.6 21.896C99.04 22.328 98.264 22.696 97.272 23C98.792 23.16 99.984 23.648 100.848 24.464C101.728 25.28 102.168 26.312 102.168 27.56C102.168 28.648 101.88 29.552 101.304 30.272C100.744 30.976 100 31.504 99.072 31.856C98.16 32.208 97.176 32.384 96.12 32.384Z" fill="black"/>
<path d="M123.768 50.384C123.768 50.704 123.76 51.008 123.744 51.296C123.744 51.584 123.72 51.848 123.672 52.088C123.992 52.072 124.304 52.064 124.608 52.064C124.912 52.048 125.216 52.032 125.52 52.016V53H119.496V52.208H119.664C120.208 52.16 120.616 52.008 120.888 51.752C121.16 51.496 121.344 51.152 121.44 50.72C121.536 50.288 121.584 49.776 121.584 49.184V48.368H114.288V47.192L122.976 35.816H123.768V46.928L126.192 46.952V48.368H123.768V50.384ZM121.536 39.224L115.872 46.808L121.584 46.88V39.224H121.536Z" fill="black"/>
</svg>
