<svg width="354" height="224" viewBox="0 0 354 224" fill="none" xmlns="http://www.w3.org/2000/svg">
<path d="M83.748 191.017C124.774 188.579 130.35 188.511 130.524 191.206C130.758 192.899 131.151 196.413 131.4 198.978C132.759 211.009 133.287 213.39 136.206 217.324C141.934 224.783 152.396 224.941 158.673 217.666C165.174 210.001 163.512 195.2 155.412 190.351C149.778 186.925 149.982 186.87 176.583 185.446L197.587 184.424L197.361 189.311C197.256 192.191 197.579 194.627 198.098 194.927C198.617 195.226 198.736 197.717 198.501 200.522C197.495 209.457 205.368 219.193 213.804 219.565C217.892 219.676 224.732 215.321 227.279 210.909C231.998 202.734 228.987 190.27 221.202 185.775C216.79 183.228 217.609 183.008 238.689 181.857C250.808 181.242 260.697 180.896 260.677 181.23C262.037 205.544 262.969 209.024 271.144 213.743C280.616 219.212 292.269 210.715 292.902 197.932C293.174 191.169 291.443 187.574 285.534 183.125L280.199 179.18L305.108 177.99C318.77 177.4 330.54 175.891 331.14 174.853C332.638 172.258 346.433 162.749 350.471 161.447C353.486 160.42 353.672 156.202 353.193 109.386L352.695 58.4074L343.258 53.4778C338.177 50.8905 332.823 47.2799 331.381 45.5823C329.255 42.971 326.136 42.381 311.141 41.6824C301.293 41.3598 290.032 41.0866 285.944 40.9755L278.492 40.9981L282.76 38.0994C288.127 34.7967 290 31.5528 290.961 24.495C292.292 13.4991 282.582 3.04863 272.668 4.93725C264.317 6.51689 260.366 13.0596 259.523 27.1055C259.056 36.0053 258.336 39.0499 256.569 39.4137C255.211 39.6679 245.213 39.6048 234.307 39.0173C219.108 38.3735 215.32 37.7433 218.075 36.5662C223.123 34.117 227.807 25.4032 227.445 19.1387C226.695 8.15205 217.623 0.492099 208.283 2.88505C201.249 4.87942 195.391 14.1269 196.546 21.7144C196.925 24.3551 196.934 26.4365 196.415 26.1369C195.896 25.8372 195.681 28.308 195.685 31.5974L195.863 37.5823L173.026 36.6815C160.503 36.1983 149.931 35.6309 149.542 35.4062C149.152 35.1814 150.625 34.1287 152.842 32.9863C163.366 27.6437 163.097 8.63082 152.328 2.41289C145.969 -1.25794 138.662 -0.286933 134.123 4.87787C131.451 8.00672 130.636 11.5155 129.7 21.5283C129.148 28.4763 128.193 34.3261 127.504 34.6204C126.76 34.71 105.781 34.1892 81.0682 33.2428C30.4345 31.3448 30.4345 31.3448 20.5218 45.5176C9.30067 61.3572 -0.533641 95.4713 0.458497 114.729C2.05639 144.025 16.4159 178.786 31.5318 189.762C37.2558 193.932 37.5902 193.952 83.748 191.017ZM99.4307 162.355C97.7855 156.215 99.1794 152.003 103.708 149.254C105.944 147.777 127.883 145.737 129.699 146.786C130.218 147.086 130.491 152.607 130.574 159.056L130.465 170.931L118.96 171.381C112.565 171.669 105.822 171.063 104.135 170.089C102.448 169.115 100.308 165.63 99.4307 162.355ZM146.842 157.549C146.869 151.509 146.985 146.213 147.21 145.824C147.735 144.915 196.533 141.602 196.677 142.55C196.657 142.884 196.985 148.61 197.123 155.264C197.229 164.668 196.864 167.398 194.987 167.352C193.704 167.477 182.997 168.042 171.137 168.807C159.277 169.572 148.925 169.823 148.276 169.449C147.422 169.129 146.87 163.793 146.842 157.549ZM213.54 153.497C213.423 146.509 214.153 141.048 215.102 140.904C216.125 140.629 226.777 139.859 238.638 139.094L260.406 137.649L260.422 150.806C260.368 162.886 260.103 163.944 257.148 163.968C255.531 164.072 245.493 164.678 234.841 165.448C224.263 166.089 215.173 166.55 214.654 166.251C214.06 166.081 213.603 160.28 213.54 153.497ZM97.8491 66.8064C97.0024 60.7813 99.6646 55.571 104.842 53.1967C108.716 51.2812 128.487 51.7967 128.981 53.6387C129.419 55.2761 129.807 76.7798 129.472 76.7597C129.268 76.8146 123.842 76.6231 117.413 76.3715C103.422 75.7331 98.7853 73.5753 97.8491 66.8064ZM276.857 157.7C276.943 155.154 276.82 149.374 276.821 144.877L276.709 136.681L282.694 136.503C290.89 136.391 295.541 139.422 297.461 146.585C299.634 155.107 296.773 159.164 286.819 161.721C282.261 162.723 278.263 163.356 277.744 163.056C277.225 162.757 276.826 160.45 276.857 157.7ZM145.892 70.4956C145.758 67.1312 145.745 61.7603 145.666 58.6007L145.673 52.8953L169.996 53.6169C183.393 54.0854 194.839 54.6381 195.228 54.8629C196.655 55.687 196.118 80.2901 194.726 80.0052C193.797 79.8152 183.226 79.2478 171.166 78.8596C158.977 78.3964 148.405 77.829 147.497 77.3046C146.643 76.9849 145.895 73.785 145.892 70.4956ZM212.524 68.6551C212.516 62.0762 212.653 56.4458 212.878 56.0565C213.402 55.1482 257.313 56.1057 258.74 56.9298C259.259 57.2294 259.641 63.1595 259.499 69.9979L259.555 82.4868L236.385 81.5659C223.657 81.1375 213.139 80.7748 213.01 80.6999C212.88 80.625 212.737 75.1791 212.524 68.6551ZM275.832 70.7768C275.953 64.2729 276.09 58.6425 276.13 57.9736C276.326 55.8373 286.373 57.313 291.434 60.2347C299.219 64.7296 299.655 75.3617 292.386 80.1613C288.546 82.6159 279.506 84.4898 277.3 83.2162C276.522 82.7668 275.785 77.151 275.832 70.7768Z" fill="white"/>
</svg>
