<svg width="41" height="41" viewBox="0 0 41 41" fill="none" xmlns="http://www.w3.org/2000/svg">
<circle cx="20.5" cy="20.5" r="20.5" fill="#1BD79E"/>
<path d="M27.56 16.768C27.304 14.912 26.6747 13.504 25.672 12.544C24.6693 11.5627 23.368 11.072 21.768 11.072C20.6373 11.072 19.624 11.328 18.728 11.84C17.8533 12.3307 17.1067 13.0133 16.488 13.888C15.8907 14.7413 15.432 15.744 15.112 16.896C14.792 18.0267 14.632 19.2427 14.632 20.544C14.632 22.4427 14.9307 24.1173 15.528 25.568C16.1467 27.0187 17 28.16 18.088 28.992C19.1973 29.824 20.488 30.24 21.96 30.24C23.3253 30.24 24.6693 29.9093 25.992 29.248C27.336 28.5653 28.4453 27.6053 29.32 26.368L30.632 27.552C29.6293 28.9173 28.5627 29.9627 27.432 30.688C26.3013 31.392 25.192 31.872 24.104 32.128C23.0373 32.384 22.0667 32.512 21.192 32.512C19.5493 32.512 18.056 32.224 16.712 31.648C15.3893 31.0507 14.2373 30.24 13.256 29.216C12.296 28.1707 11.5493 26.9653 11.016 25.6C10.504 24.2133 10.248 22.72 10.248 21.12C10.248 19.648 10.472 18.1973 10.92 16.768C11.3893 15.3387 12.0827 14.048 13 12.896C13.9387 11.744 15.112 10.8267 16.52 10.144C17.928 9.44 19.56 9.088 21.416 9.088C22.3547 9.088 23.336 9.23733 24.36 9.536C25.384 9.81333 26.344 10.2293 27.24 10.784L27.112 9.312H29.32V16.768H27.56Z" fill="white"/>
</svg>
