<svg width="75" height="76" viewBox="0 0 75 76" fill="none" xmlns="http://www.w3.org/2000/svg">
<path d="M75 3.125C75 2.2962 74.6708 1.50134 74.0847 0.915292C73.4987 0.329241 72.7038 0 71.875 0C71.0462 0 70.2513 0.329241 69.6653 0.915292C69.0792 1.50134 68.75 2.2962 68.75 3.125V71.875C68.75 72.7038 69.0792 73.4987 69.6653 74.0847C70.2513 74.6708 71.0462 75 71.875 75C72.7038 75 73.4987 74.6708 74.0847 74.0847C74.6708 73.4987 75 72.7038 75 71.875V3.125ZM1.41429e-06 6.2625C-0.000770252 5.11524 0.314251 3.98991 0.910549 3.0098C1.50685 2.02968 2.36141 1.2326 3.38062 0.705898C4.39982 0.179191 5.54433 -0.0568238 6.68876 0.0237152C7.83318 0.104254 8.93336 0.498239 9.86875 1.1625L53.6188 32.1812C54.4311 32.7564 55.0943 33.5173 55.5532 34.4005C56.0121 35.2837 56.2535 36.2638 56.2571 37.2591C56.2608 38.2544 56.0267 39.2362 55.5743 40.1228C55.1219 41.0094 54.4643 41.7751 53.6563 42.3562L9.90625 73.8375C8.97292 74.5107 7.87183 74.9132 6.72435 75.0005C5.57688 75.0878 4.42756 74.8567 3.40308 74.3325C2.37861 73.8083 1.51875 73.0114 0.918277 72.0297C0.317806 71.048 3.97256e-05 69.9195 1.41429e-06 68.7687V6.2625ZM50 37.2812L6.25 6.2625V68.7625L50 37.2812Z" fill="#F8F8F8"/>
</svg>
