<svg width="75" height="76" viewBox="0 0 75 76" fill="none" xmlns="http://www.w3.org/2000/svg">
<path d="M-2.73196e-07 71.8936C-2.0074e-07 72.7224 0.329238 73.5172 0.915289 74.1033C1.50134 74.6893 2.2962 75.0186 3.125 75.0186C3.9538 75.0186 4.74866 74.6893 5.33471 74.1033C5.92076 73.5172 6.25 72.7224 6.25 71.8936L6.24999 3.14357C6.24999 2.31476 5.92076 1.51991 5.3347 0.933855C4.74865 0.347804 3.9538 0.0185666 3.12499 0.0185667C2.29619 0.0185668 1.50133 0.347805 0.915282 0.933856C0.329231 1.51991 -6.35597e-06 2.31477 -6.28351e-06 3.14357L-2.73196e-07 71.8936ZM75 68.7561C75.0008 69.9033 74.6857 71.0286 74.0895 72.0088C73.4932 72.9889 72.6386 73.786 71.6194 74.3127C70.6002 74.8394 69.4557 75.0754 68.3112 74.9948C67.1668 74.9143 66.0666 74.5203 65.1312 73.8561L21.3812 42.8373C20.5689 42.2622 19.9057 41.5013 19.4468 40.6181C18.9879 39.7349 18.7465 38.7548 18.7429 37.7595C18.7392 36.7641 18.9733 35.7823 19.4257 34.8957C19.8781 34.0092 20.5357 33.2434 21.3437 32.6623L65.0937 1.18106C66.0271 0.507844 67.1282 0.10539 68.2756 0.0180484C69.4231 -0.0692928 70.5724 0.161871 71.5969 0.686067C72.6214 1.21026 73.4812 2.00713 74.0817 2.98885C74.6822 3.97057 75 5.09901 75 6.24981L75 68.7561ZM25 37.7373L68.75 68.7561L68.75 6.25606L25 37.7373Z" fill="#F8F8F8"/>
</svg>
