<svg width="214" height="185" viewBox="0 0 214 185" fill="none" xmlns="http://www.w3.org/2000/svg">
<g clip-path="url(#clip0_102_2)">
<path fill-rule="evenodd" clip-rule="evenodd" d="M19.3311 0H81.382C86.6937 0 91.57 2.17279 95.0531 5.64925C98.5884 9.17786 100.713 13.9928 100.713 19.2944V73.9791H95.1576V21.1717H5.48584V151.991H18.7389V172.172C18.7389 174.918 19.2091 177.56 20.0799 180.011H19.3311C14.0194 180.011 9.14307 177.838 5.65999 174.362C2.12467 170.816 0 166.019 0 160.7V19.2944C0 13.9928 2.17692 9.12572 5.65999 5.64925C9.19531 2.12064 14.002 0 19.3311 0ZM165.359 58.1439C164.715 48.0621 160.761 39.7881 154.805 33.8608C148.466 27.551 139.845 23.8833 130.528 23.553L134.812 28.6808C136.084 30.2105 135.892 32.4702 134.36 33.7391C132.827 35.008 130.563 34.8168 129.292 33.2871L119.33 21.3802C118.076 19.8854 118.25 17.6604 119.713 16.3741L131.399 6.13596C132.897 4.83228 135.161 4.98872 136.467 6.46622C137.773 7.9611 137.616 10.2208 136.136 11.5245L130.633 16.3568C141.831 16.7218 152.228 21.1369 159.89 28.7504C166.979 35.8076 171.715 45.5938 172.517 57.4138L177.01 52.06C178.281 50.5304 180.563 50.3392 182.078 51.6081C183.61 52.877 183.802 55.1541 182.53 56.6663L172.551 68.5559C171.298 70.0507 169.086 70.2767 167.553 69.0599L155.397 59.3954C153.847 58.1612 153.586 55.9015 154.823 54.3371C156.059 52.7901 158.323 52.5294 159.89 53.7635L165.359 58.1439ZM214 103.772V165.706C214 171.007 211.823 175.874 208.34 179.351C204.805 182.879 199.981 185 194.669 185H57.2617C51.95 185 47.0737 182.827 43.5907 179.351C40.0553 175.822 37.9307 171.007 37.9307 165.706V103.772C37.9307 98.4708 40.1076 93.6038 43.5907 90.1273C47.126 86.5987 51.9326 84.4781 57.2617 84.4781H194.669C199.981 84.4781 204.857 86.6508 208.34 90.1273C211.875 93.6559 214 98.4534 214 103.772ZM61.6678 134.696C61.6678 139.059 58.1325 142.639 53.709 142.639C49.3377 142.639 45.7502 139.111 45.7502 134.696C45.7502 130.333 49.2855 126.752 53.709 126.752C58.0977 126.752 61.6678 130.28 61.6678 134.696ZM65.9694 89.9535V179.455H192.788V89.9535H65.9694Z" fill="white"/>
</g>
<defs>
<clipPath id="clip0_102_2">
<rect width="214" height="185" fill="white"/>
</clipPath>
</defs>
</svg>
